<svg id="visual" viewBox="0 0 900 200" width="900" height="200" xmlns="http://www.w3.org/2000/svg" xmlns:xlink="http://www.w3.org/1999/xlink" version="1.1"><rect x="0" y="0" width="900" height="200" fill="#ff0000"></rect><path d="M0 66L18.8 65.8C37.7 65.7 75.3 65.3 112.8 61C150.3 56.7 187.7 48.3 225.2 50.3C262.7 52.3 300.3 64.7 337.8 73C375.3 81.3 412.7 85.7 450.2 78.3C487.7 71 525.3 52 562.8 50.3C600.3 48.7 637.7 64.3 675.2 70.7C712.7 77 750.3 74 787.8 67.3C825.3 60.7 862.7 50.3 881.3 45.2L900 40L900 201L881.3 201C862.7 201 825.3 201 787.8 201C750.3 201 712.7 201 675.2 201C637.7 201 600.3 201 562.8 201C525.3 201 487.7 201 450.2 201C412.7 201 375.3 201 337.8 201C300.3 201 262.7 201 225.2 201C187.7 201 150.3 201 112.8 201C75.3 201 37.7 201 18.8 201L0 201Z" fill="#ff891b"></path><path d="M0 118L18.8 115C37.7 112 75.3 106 112.8 101.7C150.3 97.3 187.7 94.7 225.2 91C262.7 87.3 300.3 82.7 337.8 83C375.3 83.3 412.7 88.7 450.2 90.2C487.7 91.7 525.3 89.3 562.8 86.8C600.3 84.3 637.7 81.7 675.2 86.2C712.7 90.7 750.3 102.3 787.8 103.2C825.3 104 862.7 94 881.3 89L900 84L900 201L881.3 201C862.7 201 825.3 201 787.8 201C750.3 201 712.7 201 675.2 201C637.7 201 600.3 201 562.8 201C525.3 201 487.7 201 450.2 201C412.7 201 375.3 201 337.8 201C300.3 201 262.7 201 225.2 201C187.7 201 150.3 201 112.8 201C75.3 201 37.7 201 18.8 201L0 201Z" fill="#ff5346"></path><path d="M0 105L18.8 108.3C37.7 111.7 75.3 118.3 112.8 116.8C150.3 115.3 187.7 105.7 225.2 107.8C262.7 110 300.3 124 337.8 124.5C375.3 125 412.7 112 450.2 107.7C487.7 103.3 525.3 107.7 562.8 111.2C600.3 114.7 637.7 117.3 675.2 115.5C712.7 113.7 750.3 107.3 787.8 107.5C825.3 107.7 862.7 114.3 881.3 117.7L900 121L900 201L881.3 201C862.7 201 825.3 201 787.8 201C750.3 201 712.7 201 675.2 201C637.7 201 600.3 201 562.8 201C525.3 201 487.7 201 450.2 201C412.7 201 375.3 201 337.8 201C300.3 201 262.7 201 225.2 201C187.7 201 150.3 201 112.8 201C75.3 201 37.7 201 18.8 201L0 201Z" fill="#ff0072"></path><path d="M0 153L18.8 153.7C37.7 154.3 75.3 155.7 112.8 151.5C150.3 147.3 187.7 137.7 225.2 133.8C262.7 130 300.3 132 337.8 137.5C375.3 143 412.7 152 450.2 155.5C487.7 159 525.3 157 562.8 156.7C600.3 156.3 637.7 157.7 675.2 156.3C712.7 155 750.3 151 787.8 150.5C825.3 150 862.7 153 881.3 154.5L900 156L900 201L881.3 201C862.7 201 825.3 201 787.8 201C750.3 201 712.7 201 675.2 201C637.7 201 600.3 201 562.8 201C525.3 201 487.7 201 450.2 201C412.7 201 375.3 201 337.8 201C300.3 201 262.7 201 225.2 201C187.7 201 150.3 201 112.8 201C75.3 201 37.7 201 18.8 201L0 201Z" fill="#db00af"></path><path d="M0 159L18.8 161C37.7 163 75.3 167 112.8 170.7C150.3 174.3 187.7 177.7 225.2 174.5C262.7 171.3 300.3 161.7 337.8 156.7C375.3 151.7 412.7 151.3 450.2 153.8C487.7 156.3 525.3 161.7 562.8 163.3C600.3 165 637.7 163 675.2 162.3C712.7 161.7 750.3 162.3 787.8 163.8C825.3 165.3 862.7 167.7 881.3 168.8L900 170L900 201L881.3 201C862.7 201 825.3 201 787.8 201C750.3 201 712.7 201 675.2 201C637.7 201 600.3 201 562.8 201C525.3 201 487.7 201 450.2 201C412.7 201 375.3 201 337.8 201C300.3 201 262.7 201 225.2 201C187.7 201 150.3 201 112.8 201C75.3 201 37.7 201 18.8 201L0 201Z" fill="#0000ff"></path></svg>